<?xml version="1.0" standalone="no"?>
<!DOCTYPE svg PUBLIC "-//W3C//DTD SVG 20010904//EN"
 "http://www.w3.org/TR/2001/REC-SVG-20010904/DTD/svg10.dtd">
<svg version="1.0" xmlns="http://www.w3.org/2000/svg"
 width="300.000000pt" height="300.000000pt" viewBox="0 0 300.000000 300.000000"
 preserveAspectRatio="xMidYMid meet">
<metadata>
Created by potrace 1.10, written by Peter Selinger 2001-2011
</metadata>
<g transform="translate(0.000000,300.000000) scale(0.100000,-0.100000)"
fill="#000000" stroke="none">
<path d="M0 1500 l0 -1500 1500 0 1500 0 0 1500 0 1500 -1500 0 -1500 0 0
-1500z m1455 1480 c-4 -6 19 -10 62 -9 49 1 61 3 43 9 -47 15 121 11 213 -6
595 -103 1091 -597 1201 -1194 20 -113 21 -431 0 -553 -54 -319 -247 -653
-499 -865 -208 -175 -456 -293 -702 -336 -77 -14 -270 -21 -218 -9 48 12 28
18 -48 14 -55 -2 -75 -6 -62 -11 41 -17 -136 -10 -233 9 -507 98 -920 447
-1109 936 -35 89 -61 177 -68 225 -2 14 -8 43 -12 65 -13 55 -15 236 -3 210 5
-11 9 -40 10 -65 1 -25 4 -53 8 -62 4 -10 7 67 8 169 0 103 -3 178 -7 167 -4
-10 -8 -35 -9 -54 -1 -19 -6 -46 -10 -60 -11 -32 -10 140 1 190 4 19 10 46 13
60 30 162 118 369 219 520 223 333 586 575 965 644 92 17 246 21 237 6z"/>
<path d="M1278 2953 c7 -3 16 -2 19 1 4 3 -2 6 -13 5 -11 0 -14 -3 -6 -6z"/>
<path d="M1355 2933 c-323 -42 -600 -170 -828 -383 -217 -203 -352 -440 -428
-750 -20 -82 -23 -121 -23 -285 0 -143 4 -212 17 -278 105 -521 468 -937 962
-1103 167 -55 321 -77 500 -71 385 15 701 152 970 422 205 204 333 439 396
725 30 135 33 402 6 548 -55 291 -190 546 -402 757 -220 221 -475 353 -780
405 -109 19 -298 25 -390 13z m360 -58 c31 -30 34 -95 6 -140 -11 -19 -15 -38
-11 -50 4 -11 10 -32 14 -47 6 -26 5 -27 -29 -21 -43 7 -145 -12 -204 -38 -30
-13 -40 -15 -32 -5 21 25 115 59 179 64 58 4 62 6 56 26 -9 31 -10 31 -77 30
-55 -1 -93 -11 -161 -39 -12 -5 -17 -5 -13 1 10 17 97 56 138 61 48 7 51 11
39 54 -9 31 -8 32 5 15 8 -11 15 -28 15 -38 0 -26 19 -22 24 5 12 55 15 59 12
13 -3 -42 -2 -46 11 -33 22 21 21 82 -2 107 -36 39 -89 21 -190 -66 -48 -41
-92 -64 -118 -64 -7 1 2 8 18 16 17 9 59 45 95 80 36 34 79 70 95 78 46 24
101 20 130 -9z m-341 -125 c-49 -21 -60 -44 -39 -76 11 -17 25 -24 46 -24 22
0 32 -5 36 -20 6 -24 9 -24 63 -5 60 21 73 17 20 -6 -25 -11 -53 -27 -62 -36
-17 -15 -19 -14 -28 14 -9 24 -16 30 -42 30 -33 0 -68 32 -68 62 0 39 49 80
95 80 12 0 4 -7 -21 -19z m-137 -62 c31 -29 31 -77 0 -106 -24 -23 -126 -45
-113 -24 7 12 -12 112 -26 129 -10 13 12 19 76 22 28 1 46 -5 63 -21z m674 4
c14 -12 20 -25 16 -35 -10 -25 -25 -20 -42 13 -9 17 -19 30 -23 30 -17 0 -32
-26 -32 -54 0 -47 13 -60 49 -53 35 7 38 2 14 -25 -42 -47 -109 7 -104 85 3
50 78 74 122 39z m-831 -33 c0 -4 -16 -5 -35 -2 -37 6 -42 -2 -26 -41 7 -17 8
-17 23 -2 21 21 25 20 31 -4 4 -15 0 -19 -16 -17 -23 2 -32 -19 -18 -42 11
-17 51 -5 51 15 0 8 5 14 11 14 6 0 9 -10 7 -21 -2 -16 -15 -25 -48 -35 -25
-8 -47 -14 -50 -14 -3 0 -11 26 -19 58 -7 31 -18 63 -23 70 -13 16 -13 16 42
34 43 15 70 10 70 -13z m951 11 c21 0 49 -42 49 -72 -1 -77 -93 -114 -135 -55
-18 26 -19 78 -2 99 17 22 50 38 65 33 8 -3 18 -5 23 -5z m-1091 -45 c11 -13
8 -15 -21 -13 -36 3 -48 -14 -29 -42 9 -13 12 -12 25 4 16 22 20 21 29 -10 6
-19 3 -21 -19 -16 -25 4 -30 -3 -19 -32 9 -23 45 -20 51 4 4 17 23 29 23 16 0
-2 3 -11 6 -19 4 -11 -10 -21 -51 -36 -31 -12 -57 -21 -58 -21 -1 0 -3 11 -3
26 -1 14 -13 47 -26 73 l-24 48 41 16 c52 20 60 20 75 2z m1222 -2 c4 -2 -4
-28 -18 -58 -13 -31 -24 -65 -24 -76 0 -17 -3 -18 -22 -8 -13 6 -24 13 -25 14
-2 1 6 20 17 43 11 23 23 55 26 71 6 28 15 31 46 14z m63 -25 c16 -7 24 -17
20 -27 -2 -9 -1 -38 4 -66 l8 -50 21 45 c11 24 18 48 16 52 -7 11 8 10 26 -2
11 -8 12 -12 3 -18 -7 -4 -24 -33 -38 -65 -38 -81 -48 -77 -70 32 l-11 56 -17
-32 c-9 -18 -17 -41 -17 -53 0 -18 -3 -19 -21 -9 -12 6 -17 14 -12 18 16 10
61 105 56 119 -6 15 -1 15 32 0z m-1407 -27 c3 -10 -1 -12 -19 -8 -34 9 -51
-9 -37 -39 14 -30 26 -31 37 -2 l8 22 12 -21 c15 -28 14 -36 -2 -30 -8 3 -19
2 -26 -3 -16 -9 2 -50 22 -50 16 -1 -23 -30 -40 -30 -7 0 -13 8 -13 18 0 9
-13 40 -29 68 l-28 52 41 20 c45 23 67 24 74 3z m817 -91 c229 -33 411 -124
571 -284 181 -182 275 -393 290 -654 34 -572 -463 -1063 -1040 -1029 -182 11
-376 78 -520 181 -90 64 -224 210 -275 299 -100 178 -135 308 -136 507 0 265
85 481 263 671 223 237 540 352 847 309z m-1419 -985 c0 -185 9 -248 55 -400
99 -324 324 -598 607 -740 74 -37 89 -59 57 -85 -36 -30 -259 110 -400 254
-190 192 -309 415 -366 689 -16 77 -22 139 -22 257 -1 169 7 204 46 198 22 -3
22 -6 23 -173z"/>
<path d="M1155 2644 c11 -76 24 -91 53 -62 29 29 0 108 -40 108 -18 0 -20 -4
-13 -46z"/>
<path d="M1980 2641 c-23 -45 -1 -121 32 -108 20 7 28 51 16 93 -10 38 -32 44
-48 15z"/>
<path d="M1375 2453 c-11 -2 -47 -11 -80 -19 -33 -9 -68 -17 -77 -19 -9 -2
-25 -8 -36 -14 -11 -6 -22 -7 -26 -4 -3 3 -6 0 -6 -7 0 -7 -3 -11 -6 -7 -4 3
-19 0 -35 -9 -16 -8 -31 -13 -33 -12 -2 2 -13 -6 -25 -16 -12 -11 -21 -16 -21
-12 0 8 -56 -32 -129 -91 -68 -56 -161 -155 -155 -164 3 -5 1 -9 -5 -9 -11 0
-52 -55 -55 -74 -1 -7 -9 -21 -19 -30 -9 -10 -17 -22 -17 -27 0 -5 -9 -29 -21
-53 -11 -25 -21 -51 -23 -58 -1 -7 -4 -18 -8 -23 -20 -33 -61 -270 -44 -253 8
7 15 40 21 103 2 22 8 52 14 68 6 15 9 27 7 27 -11 0 69 182 99 227 19 29 35
57 35 61 0 5 9 17 20 27 11 10 18 20 16 22 -3 3 107 112 150 148 41 35 55 45
63 45 4 0 16 9 26 20 10 11 21 17 26 15 4 -3 11 0 15 6 5 9 62 39 84 44 3 1
23 10 45 20 22 10 44 17 48 16 4 -1 17 4 28 10 11 5 30 11 42 13 83 10 126 20
121 27 -5 9 -7 9 -39 2z"/>
<path d="M1433 2454 c4 -4 57 -8 119 -10 62 -1 126 -7 142 -14 16 -6 31 -8 34
-6 2 3 18 -2 34 -10 17 -9 32 -13 35 -10 3 3 15 -1 27 -9 11 -8 27 -15 36 -15
19 1 -33 30 -63 36 -12 2 -33 8 -47 13 -59 23 -337 44 -317 25z"/>
<path d="M1375 2409 c-198 -29 -382 -126 -531 -280 -157 -164 -239 -353 -251
-579 -20 -395 212 -758 578 -904 280 -112 602 -77 852 93 267 181 420 482 403
796 -6 133 -33 243 -86 353 -50 104 -88 161 -164 241 -212 222 -501 323 -801
280z m363 -108 c139 -40 267 -118 368 -223 74 -76 114 -134 159 -231 57 -120
70 -184 70 -347 0 -164 -13 -227 -71 -349 -87 -186 -238 -333 -423 -411 -115
-49 -191 -63 -336 -63 -111 1 -143 4 -218 27 -156 46 -266 115 -379 234 -443
470 -194 1243 442 1378 94 20 294 12 388 -15z"/>
<path d="M1413 2289 c-373 -45 -670 -361 -690 -734 -14 -250 68 -458 248 -629
95 -91 219 -162 339 -193 93 -25 321 -25 410 1 223 64 405 215 505 421 63 129
78 197 78 340 0 150 -17 227 -83 361 -145 298 -472 474 -807 433z m279 -38
c141 -36 297 -126 381 -220 283 -318 266 -782 -39 -1071 -160 -152 -340 -219
-558 -207 -124 6 -197 25 -301 77 -198 100 -340 274 -401 490 -26 91 -25 290
0 380 77 267 260 458 517 539 85 26 96 28 220 30 75 1 127 -5 181 -18z"/>
<path d="M1370 2245 c-202 -43 -368 -154 -481 -323 l-51 -77 253 -82 c140 -46
264 -83 276 -83 12 0 44 5 71 11 47 11 56 9 220 -45 95 -31 174 -56 176 -56 2
0 6 9 9 20 3 11 9 20 14 20 8 0 103 -219 103 -237 -1 -10 -202 -132 -215 -130
-5 1 -10 12 -10 25 0 21 -16 28 -169 79 -162 53 -172 58 -215 104 -46 48 -48
48 -305 133 -143 47 -262 83 -265 81 -2 -3 -6 -62 -9 -132 -6 -186 25 -308
114 -448 151 -237 446 -375 720 -335 227 33 392 134 525 323 151 215 170 516
49 757 -92 182 -277 332 -475 385 -83 23 -254 28 -335 10z m261 -50 c77 -7
200 -54 280 -107 122 -82 225 -218 277 -367 23 -67 26 -92 27 -206 0 -117 -3
-139 -29 -219 -73 -221 -265 -402 -490 -460 -78 -21 -203 -30 -241 -17 -24 7
-11 10 65 10 207 3 366 74 505 223 125 136 180 291 172 488 -8 193 -61 314
-203 456 -128 129 -282 193 -474 196 -53 1 -66 4 -45 9 17 3 44 5 60 3 17 -2
59 -6 96 -9z m-31 -70 c10 -12 10 -18 0 -30 -16 -19 -25 -19 -45 1 -20 20 -99
22 -162 5 -56 -15 -121 -66 -161 -126 -35 -52 -66 -67 -117 -58 -43 9 -28 25
18 18 49 -6 55 -3 85 47 56 91 148 141 265 142 42 0 77 4 77 8 0 14 27 9 40
-7z m203 -135 c165 -51 290 -187 333 -363 14 -57 15 -87 7 -197 -9 -124 -11
-133 -51 -212 -52 -102 -123 -184 -215 -249 -73 -51 -192 -102 -267 -113 -65
-10 -39 6 33 21 85 17 210 82 284 148 74 66 148 174 180 262 28 77 30 107 2
39 -81 -200 -306 -329 -516 -295 -93 15 -99 14 -134 -15 -53 -45 -111 -35
-292 51 -74 36 -99 52 -103 70 -4 13 -5 26 -3 27 2 2 73 -19 158 -47 147 -49
154 -50 167 -33 7 11 11 22 9 26 -3 4 -77 32 -165 61 -88 30 -160 58 -160 64
1 37 18 35 176 -19 116 -40 162 -51 172 -43 32 26 6 42 -153 93 -158 51 -159
51 -133 68 24 16 32 15 144 -9 134 -29 215 -62 237 -97 8 -12 18 -40 21 -60 8
-42 64 -98 99 -98 13 0 49 7 82 15 218 57 365 282 328 502 -34 196 -181 342
-378 376 -128 22 -271 -24 -367 -117 -27 -25 -48 -42 -48 -37 0 15 104 106
153 135 115 67 272 85 400 46z"/>
<path d="M1800 1956 c0 -2 21 -16 47 -32 173 -101 264 -326 213 -524 -6 -25
-12 -53 -13 -62 -1 -9 -3 -15 -6 -13 -2 3 -12 -13 -23 -34 -25 -51 -153 -181
-178 -181 -5 0 -10 -4 -10 -9 0 -5 -9 -13 -21 -16 -11 -4 -19 -9 -16 -11 7 -8
111 45 154 79 54 41 81 76 128 161 37 68 38 72 39 180 1 61 -2 124 -6 140 -13
54 -77 170 -110 202 -40 37 -121 102 -128 102 -3 1 -18 5 -33 11 -31 12 -37
13 -37 7z"/>
<path d="M1300 1286 c0 -2 7 -7 16 -10 8 -3 12 -2 9 4 -6 10 -25 14 -25 6z"/>
<path d="M1340 1276 c0 -2 15 -9 33 -15 29 -10 30 -9 13 4 -18 14 -46 20 -46
11z"/>
<path d="M1428 1237 c27 -29 28 -58 2 -82 -13 -11 -18 -25 -15 -37 9 -25 -24
-78 -43 -70 -10 3 -13 1 -8 -6 3 -6 -20 0 -51 12 -32 13 -69 27 -83 31 -22 7
-23 6 -11 -9 7 -9 20 -16 27 -16 7 0 30 -9 51 -20 57 -29 99 -33 134 -13 16 9
29 21 29 25 0 13 64 26 83 16 22 -11 22 -2 -3 29 -11 14 -25 44 -31 67 -13 50
-31 71 -72 85 l-31 11 22 -23z"/>
<path d="M1185 1090 c3 -5 8 -10 11 -10 2 0 4 5 4 10 0 6 -5 10 -11 10 -5 0
-7 -4 -4 -10z"/>
<path d="M811 1774 c-12 -31 -20 -62 -18 -68 2 -6 13 18 25 53 27 81 21 92 -7
15z"/>
<path d="M850 1800 c0 -11 5 -20 12 -20 6 0 135 -41 285 -90 265 -88 276 -90
326 -81 49 9 62 7 204 -40 l151 -50 -25 -75 c-14 -41 -28 -72 -31 -70 -4 2
-72 25 -151 51 -130 42 -149 51 -179 86 -19 21 -39 39 -45 39 -6 0 -134 41
-285 91 -215 71 -277 88 -283 77 -5 -7 -5 -16 -1 -19 4 -3 115 -41 247 -83
238 -78 240 -78 293 -130 50 -49 59 -53 225 -107 139 -45 171 -58 169 -72 -2
-14 6 -12 45 12 26 15 66 39 88 51 22 13 41 24 42 25 2 1 -12 37 -31 81 -18
43 -36 88 -40 99 -6 16 -9 17 -16 5 -8 -13 -37 -6 -184 43 l-175 58 -68 -13
-68 -14 -250 83 c-137 46 -251 83 -252 83 -2 0 -3 -9 -3 -20z"/>
<path d="M1496 1583 c-3 -3 -19 -8 -35 -12 l-31 -6 22 -26 c25 -28 67 -52 110
-63 23 -5 27 -2 33 24 4 17 11 30 16 30 5 0 9 6 9 13 0 16 -112 52 -124 40z"/>
<path d="M1621 1508 c-10 -25 -5 -35 19 -40 8 -2 28 -15 45 -30 36 -34 59 -35
79 -6 17 24 22 83 7 92 -5 3 -30 3 -56 -1 -43 -5 -46 -8 -42 -30 3 -18 1 -21
-6 -14 -15 15 -30 14 -21 -1 4 -6 3 -8 -3 -5 -6 4 -8 18 -5 32 5 31 -6 33 -17
3z m146 -23 c2 -31 -21 -65 -44 -65 -7 0 -13 7 -13 15 0 8 -7 15 -14 15 -12 0
-13 6 -5 29 7 20 15 28 25 24 11 -4 12 -9 3 -19 -12 -14 -4 -34 13 -34 7 0 8
13 5 36 -5 29 -3 35 11 32 10 -2 17 -14 19 -33z"/>
<path d="M1905 2360 c17 -11 35 -20 41 -20 6 0 17 -6 24 -14 6 -8 19 -12 27
-9 10 4 14 2 10 -4 -3 -5 11 -19 31 -31 20 -11 47 -30 60 -42 12 -11 22 -19
22 -17 0 6 86 -84 133 -138 19 -22 47 -64 62 -93 15 -29 31 -54 35 -57 5 -3
14 -22 21 -43 7 -20 21 -57 32 -82 11 -25 22 -56 24 -70 7 -59 16 -90 25 -90
5 0 7 8 4 18 -3 9 -8 35 -12 57 -3 22 -9 45 -14 50 -4 6 -10 24 -14 40 -11 44
-81 189 -100 204 -9 7 -13 17 -11 22 3 4 -4 13 -16 19 -11 7 -18 14 -16 17 3
2 -2 12 -11 22 -9 9 -28 32 -42 50 -14 19 -50 53 -80 77 -30 24 -62 49 -71 56
-23 19 -51 37 -79 50 -14 7 -27 15 -30 18 -8 9 -60 30 -73 30 -7 0 2 -9 18
-20z"/>
<path d="M2454 1600 c5 -42 15 -50 14 -11 -1 18 -5 34 -9 37 -5 3 -7 -9 -5
-26z"/>
<path d="M2461 1534 c0 -11 3 -14 6 -6 3 7 2 16 -1 19 -3 4 -6 -2 -5 -13z"/>
<path d="M555 1420 c3 -52 10 -99 16 -105 11 -10 5 64 -12 155 -6 33 -7 19 -4
-50z"/>
<path d="M2460 1498 c-1 -7 -3 -37 -6 -65 -2 -32 0 -53 6 -53 6 0 10 28 10 65
0 36 -2 65 -5 65 -3 0 -5 -6 -5 -12z"/>
<path d="M2444 1351 c-1 -15 -12 -83 -18 -106 -2 -5 -8 -21 -13 -35 -16 -37
-35 -88 -36 -97 0 -4 -7 -14 -14 -21 -7 -7 -13 -20 -13 -28 0 -8 -4 -14 -10
-14 -5 0 -10 -9 -10 -19 0 -11 -3 -21 -7 -23 -5 -2 -20 -21 -35 -43 -15 -22
-39 -53 -54 -70 -14 -16 -31 -37 -38 -45 -10 -14 -50 -49 -118 -106 -13 -12
-48 -34 -76 -50 -48 -27 -81 -61 -46 -47 7 3 14 10 14 16 0 6 3 8 6 4 7 -6 94
45 128 75 80 72 166 163 177 187 7 16 16 28 20 25 8 -5 118 213 123 246 3 14
5 25 6 25 1 0 3 7 5 15 29 114 31 127 20 127 -6 0 -11 -7 -11 -16z"/>
<path d="M578 1255 c2 -14 8 -25 13 -25 5 0 6 -7 3 -15 -4 -8 -2 -15 4 -15 6
0 8 -9 5 -20 -3 -12 0 -20 6 -20 7 0 10 -4 6 -9 -3 -5 0 -15 7 -23 7 -7 15
-22 16 -32 2 -11 15 -36 28 -55 13 -20 24 -39 24 -44 0 -16 86 -124 147 -184
35 -34 63 -59 63 -57 0 3 15 -9 33 -25 17 -17 47 -38 66 -47 19 -9 55 -29 80
-44 59 -34 142 -63 153 -52 5 5 3 9 -4 9 -22 0 -138 47 -138 56 0 5 -4 6 -9 3
-5 -3 -25 7 -45 22 -20 15 -59 43 -86 62 -46 32 -175 150 -164 150 3 0 -5 10
-17 23 -52 55 -121 184 -160 300 -22 66 -41 91 -31 42z"/>
<path d="M1876 628 c-22 -11 -47 -21 -57 -23 -10 -2 -26 -8 -36 -13 -10 -6
-36 -13 -58 -16 -22 -4 -65 -11 -95 -16 -84 -14 -261 -4 -340 19 -24 8 -37 8
-45 0 -7 -7 -6 -10 5 -8 8 2 33 -3 55 -11 27 -10 89 -14 195 -15 160 0 248 13
335 52 22 9 42 17 45 18 26 6 50 18 50 26 0 12 -8 10 -54 -13z"/>
<path d="M186 1618 c-11 -36 -13 -57 -6 -68 5 -7 9 7 11 34 4 45 2 58 -5 34z"/>
<path d="M175 1490 c-4 -17 -5 -34 -2 -36 2 -3 7 10 11 27 8 42 0 50 -9 9z"/>
<path d="M177 1412 c-6 -29 5 -138 15 -147 5 -6 -2 167 -7 173 -1 1 -5 -10 -8
-26z"/>
<path d="M193 1230 c1 -11 5 -20 9 -20 4 0 8 9 8 20 0 11 -4 20 -9 20 -6 0 -9
-9 -8 -20z"/>
<path d="M200 1185 c0 -8 5 -15 10 -15 6 0 10 7 10 15 0 8 -4 15 -10 15 -5 0
-10 -7 -10 -15z"/>
<path d="M214 1140 c3 -14 6 -28 6 -32 0 -5 5 -8 11 -8 12 0 2 39 -13 55 -7 7
-9 2 -4 -15z"/>
<path d="M230 1078 c0 -10 5 -18 11 -18 5 0 8 -3 5 -8 -2 -4 2 -18 11 -32 8
-14 12 -17 9 -7 -3 10 -6 24 -6 31 0 7 -7 21 -15 32 -13 17 -14 17 -15 2z"/>
<path d="M268 978 c7 -7 12 -20 12 -31 0 -10 4 -16 10 -12 12 7 -9 55 -24 55
-6 0 -5 -5 2 -12z"/>
<path d="M290 917 c0 -7 29 -57 40 -67 3 -3 6 -11 7 -17 5 -24 95 -158 145
-216 88 -102 234 -231 250 -221 4 3 8 0 8 -6 0 -6 5 -8 10 -5 6 3 10 2 10 -4
0 -13 101 -72 112 -65 4 3 8 1 8 -4 0 -5 10 -12 23 -15 l22 -6 -24 19 c-12 11
-27 17 -32 14 -5 -3 -9 0 -9 6 0 6 -5 8 -10 5 -6 -3 -10 -2 -10 3 0 6 -12 15
-27 21 -40 17 -119 73 -186 134 -80 72 -77 68 -127 127 -25 30 -53 62 -62 72
-10 10 -18 24 -18 32 0 8 -7 17 -16 20 -9 4 -14 9 -11 12 3 4 -9 30 -27 58
-18 28 -38 65 -44 81 -6 17 -11 23 -11 15 -1 -13 -2 -13 -11 0 -5 8 -10 11
-10 7z"/>
<path d="M915 2850 c-4 -6 -10 -8 -15 -5 -5 3 -12 0 -15 -6 -12 -18 -1 -17 35
2 19 11 27 19 18 19 -9 0 -20 -5 -23 -10z"/>
<path d="M825 2800 c-3 -6 1 -7 9 -4 18 7 21 14 7 14 -6 0 -13 -4 -16 -10z"/>
<path d="M773 2779 c-35 -22 -46 -37 -15 -20 22 13 58 40 52 41 -3 0 -20 -10
-37 -21z"/>
<path d="M684 2724 c-18 -14 -18 -15 4 -4 12 6 22 13 22 15 0 8 -5 6 -26 -11z"/>
<path d="M645 2700 c3 -5 8 -10 11 -10 2 0 4 5 4 10 0 6 -5 10 -11 10 -5 0 -7
-4 -4 -10z"/>
<path d="M615 2678 c-27 -14 -41 -28 -168 -153 -60 -59 -106 -109 -103 -112 3
-3 -6 -14 -19 -25 -14 -11 -23 -23 -20 -27 2 -5 -4 -16 -15 -26 -26 -24 -135
-216 -131 -232 0 -1 -6 -15 -14 -30 -8 -15 -12 -29 -10 -32 6 -5 5 -7 35 54
13 28 23 53 22 58 -1 4 3 7 9 7 5 0 8 4 5 9 -3 5 1 14 9 21 8 7 12 16 9 21 -3
5 0 9 6 9 6 0 9 4 6 9 -3 4 3 16 14 26 11 10 20 23 20 28 0 6 11 25 25 43 14
18 25 37 25 43 0 6 4 11 8 11 4 0 37 35 72 78 36 42 69 79 74 81 5 2 34 27 65
56 31 29 67 62 81 74 28 22 26 26 -5 9z"/>
<path d="M115 2001 c-9 -18 -13 -36 -10 -40 3 -5 0 -11 -7 -13 -7 -3 -8 -9 -3
-18 6 -9 14 3 26 41 20 62 18 75 -6 30z"/>
<path d="M79 1893 c-1 -10 -2 -25 -3 -33 -1 -8 -5 -22 -10 -30 -9 -13 -8 -13
8 -1 9 8 15 22 13 31 -2 10 0 25 5 34 6 10 5 16 -2 16 -5 0 -11 -8 -11 -17z"/>
<path d="M59 1803 c-1 -11 -6 -34 -14 -64 -4 -16 -2 -30 4 -33 7 -4 11 2 10
16 0 13 2 38 5 56 3 17 3 32 1 32 -3 0 -5 -3 -6 -7z"/>
<path d="M40 1283 c0 -5 5 -15 10 -23 7 -12 9 -10 7 8 -1 19 -17 33 -17 15z"/>
<path d="M69 1185 c-8 -7 29 -147 42 -160 6 -6 6 2 -1 19 -6 16 -13 43 -16 60
-8 52 -19 88 -25 81z"/>
<path d="M124 978 c8 -18 20 -48 26 -65 7 -18 16 -30 21 -27 5 3 3 17 -5 32
-8 15 -20 42 -26 60 -7 17 -16 32 -21 32 -5 0 -2 -15 5 -32z"/>
<path d="M198 815 c14 -30 29 -55 34 -55 9 0 -1 30 -17 50 -7 8 -16 25 -19 38
-4 12 -11 22 -16 22 -4 0 4 -25 18 -55z"/>
<path d="M236 738 c69 -114 294 -368 326 -368 6 0 -13 22 -43 50 -60 54 -56
51 -100 100 -62 70 -97 116 -124 163 -15 26 -36 52 -47 58 -16 9 -19 8 -12 -3z"/>
<path d="M576 351 c34 -31 141 -101 154 -100 8 0 4 5 -10 10 -13 6 -27 13 -30
18 -10 14 -103 81 -113 81 -7 0 -7 -3 -1 -9z"/>
<path d="M804 206 c11 -9 24 -16 30 -16 12 0 7 5 -24 19 -24 11 -24 11 -6 -3z"/>
<path d="M895 160 c3 -5 11 -10 16 -10 6 0 7 5 4 10 -3 6 -11 10 -16 10 -6 0
-7 -4 -4 -10z"/>
<path d="M976 125 c10 -8 24 -14 29 -14 6 0 1 6 -9 14 -11 8 -24 15 -30 15 -5
0 -1 -7 10 -15z"/>
<path d="M1337 39 c7 -7 15 -10 18 -7 3 3 -2 9 -12 12 -14 6 -15 5 -6 -5z"/>
<path d="M1378 33 c6 -2 18 -2 25 0 6 3 1 5 -13 5 -14 0 -19 -2 -12 -5z"/>
</g>
</svg>
